<!DOCTYPE svg PUBLIC "-//W3C//DTD SVG 20010904//EN" "http://www.w3.org/TR/2001/REC-SVG-20010904/DTD/svg10.dtd">
<svg version="1.0" xmlns="http://www.w3.org/2000/svg" width="180px" height="250px" viewBox="0 0 1800 2500" preserveAspectRatio="xMidYMid meet">
<g id="layer101" fill="#fdbb41" stroke="#fdbb41" stroke-width="1" fill-rule="evenodd">
<path d="M1450 1400 L1443 1392C1440 1388,1430 1374,1422 1361 C1412 1346,1406 1313,1405 1270 C1405 1209,1409 1194,1447 1121 C1470 1077,1492 1022,1496 1000 C1500 975,1510 955,1521 949 C1533 942,1546 942,1558 949 C1569 954,1593 984,1613 1013 C1633 1043,1659 1090,1671 1116 C1682 1143,1694 1192,1697 1226 C1700 1260,1697 1302,1690 1322 C1684 1342,1667 1365,1654 1374 C1641 1383,1630 1392,1630 1395 L1630 1400L1630 1400 L1624 1400C1621 1400,1607 1402,1594 1405 L1570 1410L1570 1410 L1560 1410C1554 1410,1547 1410,1545 1410 C1542 1410,1533 1410,1525 1410 L1510 1410L1510 1410 L1487 1404C1475 1401,1461 1399,1457 1399 L1450 1400M1495 1324 C1477 1267,1501 1173,1552 1106 C1565 1088,1567 1091,1587 1137 C1619 1210,1624 1259,1605 1303 C1590 1337,1587 1340,1545 1340 C1512 1340,1498 1335,1495 1324 " />
</g>
<g id="layer102" fill="#ffffff" stroke="#ffffff" stroke-width="1" fill-rule="evenodd">
<path d="M778 2244 C281 2241,134 2237,128 2227 C123 2220,120 2126,120 2018 C119 1805,126 1767,176 1702 C214 1652,249 1634,395 1589 C466 1566,546 1541,572 1533 L619 1518 619 1456 C619 1403,615 1390,589 1360 C573 1341,550 1297,539 1262 C525 1222,510 1195,496 1188 C456 1168,441 1136,428 1047 L416 960 370 957 C309 954,305 928,354 864 C421 777,444 685,415 624 C373 535,387 456,460 376 C566 259,753 219,910 279 C939 290,988 319,1020 344 C1052 369,1080 390,1083 390 C1085 390,1094 372,1103 350 C1120 308,1151 290,1175 310 C1194 325,1193 353,1174 390 C1166 407,1161 424,1164 429 C1167 433,1190 442,1215 448 C1346 482,1407 640,1325 737 C1306 760,1303 772,1307 815 C1310 847,1306 878,1296 901 C1287 924,1283 953,1286 977 C1289 998,1286 1043,1279 1075 C1269 1123,1259 1142,1225 1176 C1197 1203,1178 1233,1170 1263 C1163 1288,1142 1326,1123 1348 C1092 1384,1090 1393,1090 1453 L1090 1518 1192 1549 C1248 1567,1318 1588,1347 1597 L1400 1613 1400 1656 C1400 1680,1396 1700,1391 1700 C1386 1700,1357 1691,1326 1680 L1270 1661 1270 1808 L1270 1956 1295 1970 C1333 1990,1350 2030,1350 2098 C1350 2156,1351 2158,1376 2161 C1397 2164,1405 2173,1416 2207 C1423 2230,1427 2250,1425 2250 C1422 2250,1131 2247,778 2244 M210 1984 C210 1797,214 1777,262 1732 C286 1709,388 1670,421 1670 C438 1670,440 1680,440 1811 L440 1952 402 1984 C367 2015,365 2019,362 2088 L360 2160 285 2160 L210 2160 210 1984 M422 2098 C425 2031,438 2015,459 2054 C491 2113,593 2105,619 2041 L632 2010 855 2010 L1077 2010 1089 2039 C1107 2081,1123 2092,1171 2093 C1205 2094,1216 2089,1241 2061 C1257 2043,1274 2031,1280 2035 C1285 2038,1290 2067,1290 2100 L1290 2160 855 2160 L420 2160 422 2098 M510 2020 C504 2009,500 1921,500 1821 C500 1644,500 1642,522 1636 C571 1623,570 1618,570 1828 C570 1996,567 2028,555 2033 C530 2043,520 2041,510 2020 M1150 2028 C1144 2020,1140 1935,1140 1817 L1140 1619 1172 1633 L1205 1646 1207 1829 C1209 1942,1206 2017,1200 2026 C1187 2043,1163 2044,1150 2028 M630 1776 C630 1612,631 1602,649 1597 C661 1594,684 1603,708 1620 C789 1680,915 1680,999 1619 C1032 1595,1044 1591,1060 1600 C1078 1610,1080 1621,1080 1780 L1080 1950 855 1950 L630 1950 630 1776 M777 1594 C721 1567,710 1551,710 1498 L710 1451 747 1466 C797 1487,916 1487,957 1466 C974 1457,991 1450,994 1450 C997 1450,1000 1471,1000 1498 C1000 1552,987 1569,927 1594 C879 1614,818 1614,777 1594 M742 1365 C663 1319,642 1294,611 1209 C590 1153,578 1132,554 1120 C529 1106,523 1095,515 1047 C501 960,502 960,693 959 C829 959,861 956,895 941 C944 917,994 866,1014 816 C1035 767,1053 774,1061 835 C1071 904,1094 929,1180 970 C1198 978,1203 1010,1195 1064 C1190 1099,1183 1109,1158 1120 C1131 1132,1122 1147,1100 1212 C1067 1304,1064 1308,989 1354 C942 1382,916 1391,865 1395 C804 1399,795 1397,742 1365 M464 862 C467 852,478 820,489 790 C500 759,509 724,509 712 C509 700,515 690,522 690 C565 690,939 765,939 774 C939 799,899 847,866 863 C836 876,796 880,645 880 C473 880,460 878,464 862 M1165 864 C1144 842,1144 795,1165 803 C1174 807,1189 810,1199 810 C1220 810,1230 829,1224 859 C1219 884,1186 887,1165 864 M827 659 C591 615,501 594,492 582 C485 573,479 547,479 524 C479 439,570 363,700 339 C807 320,904 355,1015 453 C1063 496,1085 508,1130 517 C1213 534,1238 546,1259 582 C1302 651,1267 720,1190 720 C1168 720,1004 692,827 659 " />
<path d="M1450 1400 L1457 1399C1461 1399,1475 1401,1487 1404 L1510 1410L1510 1410 L1510 1417C1510 1421,1509 1449,1507 1480 L1505 1535 1537 1538 L1570 1541 1570 1480 C1570 1447,1570 1417,1570 1415 L1570 1410L1570 1410 L1594 1405C1607 1402,1621 1400,1624 1400 L1630 1400L1630 1400 L1630 1407C1630 1411,1629 1589,1627 1801 L1625 2188 1600 2214 C1582 2234,1566 2240,1533 2240 C1502 2240,1485 2234,1470 2218 C1450 2196,1450 2184,1450 1798 L1450 1400M1515 2177 C1512 2170,1509 2037,1507 1882 L1505 1599 1537 1599 L1570 1600 1570 1883 C1570 2057,1566 2170,1560 2178 C1546 2193,1521 2193,1515 2177 " />
</g>

</svg>