<svg width="180" height="250" xmlns="http://www.w3.org/2000/svg">
 <g>
  <title>background</title>
  <rect x="-1" y="-1" width="182" height="252" id="canvas_background" fill="none"/>
 </g>

 <g>
  <title>Layer 1</title>
  <g id="svg_4">
   <path d="m127.46578,192.57088l-3.863,-0.004l0,-6.688c0,-3.945 -2.608,-7.291 -6.19,-8.405l0,-21.306l8.534,2.592c0.52,0.158 1.024,0.353 1.514,0.577l0,-7.433l-23.379,-7.099l0,-9.086c2.662,-2.073 4.676,-4.889 5.742,-8.122l2.039,-6.185c3.092,-0.91 5.478,-3.529 6.021,-6.788l1.054,-6.322c0.324,-1.945 0.034,-3.892 -0.771,-5.615c1.028,-1.453 1.796,-3.301 2.182,-5.419c0.507,-2.775 0.267,-5.471 -0.629,-7.754c1.892,-1.466 3.274,-3.229 4.094,-5.297c1.4,-3.535 1.005,-7.787 -1.055,-11.609c-3.016,-5.857 -7.443,-7.148 -13.441,-8.292l2.309,-5.181c0.786,-1.766 -0.007,-3.834 -1.772,-4.622c-1.765,-0.788 -3.835,0.005 -4.622,1.772l-2.148,4.818c-6.124,-5.489 -9.225,-7.723 -15.736,-9.737c-0.092,-0.028 -0.185,-0.053 -0.278,-0.074c-14.816,-3.277 -27.774,3.203 -32.918,11.299c-3.706,5.834 -3.621,12.313 0.179,17.956c-0.26,9.363 -3.826,14.214 -7.327,17.714c-1.001,1.001 -1.301,2.506 -0.759,3.814c0.542,1.309 1.818,2.161 3.233,2.161l4.567,0c-0.351,1.304 -0.444,2.683 -0.213,4.065l1.053,6.322c0.543,3.258 2.929,5.879 6.021,6.789l2.039,6.184c1.066,3.233 3.079,6.048 5.742,8.122l0,9.086l-23.9,7.258c-8.068,2.45 -13.489,9.762 -13.489,18.194l0,25.714c0,1.932 1.565,3.498 3.496,3.5l95.839,0.104c-1.916,-1.736 -3.134,-4.227 -3.168,-7.003zm-19.632,-39.311l4.578,1.39l0,26.52c0,1.262 -1.027,2.289 -2.289,2.289s-2.289,-1.027 -2.289,-2.289l0,-27.91zm5.726,-57.938c-0.086,0.821 -0.271,1.53 -0.485,2.11c-0.371,-0.129 -0.759,-0.182 -1.146,-0.182l0,-0.014c-1.932,0 -3.503,-1.571 -3.503,-3.503l0,-1.637l3.56,0.639c0.204,0.037 0.411,0.055 0.618,0.055c0.27,0 0.537,-0.042 0.801,-0.104c0.197,0.775 0.256,1.676 0.155,2.636zm-53.499,-28.977c3.729,-5.867 13.871,-10.733 25.356,-8.249c5.878,1.834 7.771,3.447 16.538,11.433c0.078,0.071 0.164,0.133 0.248,0.196c0.033,0.025 0.063,0.053 0.097,0.076c0.17,0.119 0.35,0.22 0.538,0.308c0.018,0.008 0.032,0.021 0.051,0.029c0.028,0.012 0.057,0.016 0.085,0.027c0.176,0.073 0.357,0.133 0.543,0.177c0.036,0.009 0.072,0.021 0.108,0.029c0.01,0.002 0.019,0.006 0.029,0.008c0.903,0.174 1.759,0.331 2.569,0.479c6.794,1.247 8.64,1.707 10.343,5.011c0.523,0.973 1.645,3.483 0.739,5.768c-0.661,1.668 -2.341,3.026 -4.998,4.044l-52.409,-9.411c-2.487,-4.008 -1.333,-7.569 0.163,-9.925zm-3.275,30.892c2.102,-3.387 3.8,-7.776 4.359,-13.631l31.466,5.651c-1.258,4.592 -5.457,7.98 -10.442,7.98l-25.383,0zm10.207,20.275c-0.489,-1.484 -1.809,-2.548 -3.354,-2.71l-0.494,-0.053c-0.684,-0.073 -1.24,-0.598 -1.354,-1.275l-1.054,-6.322c-0.144,-0.866 0.158,-1.735 0.807,-2.325l0.649,-0.59l19.974,0c8.424,0 15.485,-5.877 17.344,-13.741l1.914,0.344l0,2.894c0,5.286 3.93,9.661 9.019,10.386l0.779,0.707c0.649,0.59 0.951,1.46 0.808,2.325l-1.054,6.321c-0.113,0.679 -0.67,1.203 -1.355,1.276l-0.483,0.052c-1.554,0.163 -2.873,1.227 -3.362,2.711l-2.603,7.893c-0.758,2.299 -2.318,4.251 -4.394,5.495l-6.01,3.604c-1.704,1.021 -3.653,1.561 -5.639,1.561l-1.496,0c-1.985,0 -3.935,-0.54 -5.637,-1.561l-6.011,-3.604c-2.076,-1.246 -3.637,-3.197 -4.394,-5.495l-2.6,-7.893zm19.32,39.031c5.552,0 10.466,-2.261 13.503,-5.717l3.017,0.916l0,25.338l-16.377,0c-0.024,0 -0.047,0.007 -0.071,0.007c-0.024,-0.001 -0.047,-0.007 -0.071,-0.007l-16.379,0l0,-25.338l2.906,-0.882c3.04,3.437 7.939,5.683 13.472,5.683zm-10.625,-10.145l0,-6.316l0.712,0.427c2.79,1.673 5.984,2.557 9.236,2.557l1.496,0c3.252,0 6.446,-0.884 9.237,-2.557l0.711,-0.426l0,6.093c-1.782,3.151 -5.937,5.367 -10.768,5.367c-4.712,0 -8.774,-2.115 -10.624,-5.145zm-15.33,8.252l4.578,-1.39l0,27.911c0,1.262 -1.027,2.289 -2.289,2.289c-1.262,0 -2.289,-1.027 -2.289,-2.289l0,-26.521zm-11.191,31.229l0,6.607l-10.868,-0.012l0,-22.218c0,-5.328 3.425,-9.948 8.523,-11.497l8.536,-2.592l0,21.306c-3.583,1.116 -6.191,4.462 -6.191,8.406zm69.435,6.683l-64.436,-0.07l0,-6.613c0,-1.189 0.56,-2.239 1.418,-2.937c0.795,3.164 3.655,5.517 7.062,5.517c3.711,0 6.776,-2.789 7.226,-6.38l16.441,0c0.024,0 0.047,-0.007 0.071,-0.007c0.024,0.001 0.047,0.007 0.071,0.007l16.441,0c0.45,3.591 3.515,6.38 7.226,6.38c3.407,0 6.267,-2.353 7.062,-5.516c0.857,0.697 1.417,1.747 1.417,2.936l0,6.683l0.001,0z" id="svg_1" fill="#ffffff"/>
   <path d="m139.10678,103.66388c-0.682,-0.775 -1.772,-1.052 -2.745,-0.693c-0.97,0.359 -1.619,1.279 -1.632,2.313c-0.048,3.899 -1.663,6.648 -3.373,9.56c-2.857,4.863 -6.12,11.041 -1.447,21.351l0.05,12.557l0,43.701c0,3.928 3.196,7.124 7.125,7.124c3.929,0 7.125,-3.196 7.125,-7.124l0,-43.701l0,-12.406c8.696,-8.57 3.546,-22.852 -5.103,-32.682zm-3.439,13.712c1.062,-1.806 2.202,-3.748 3.004,-6.042c4.435,6.746 7.438,15.683 2.311,21.174l-6.898,0c-3.025,-7.29 -0.973,-10.781 1.583,-15.132zm3.542,28.876l-4.25,0l0,-8.744l4.25,0l0,8.744zm0,46.201c0,1.171 -0.953,2.124 -2.125,2.124c-1.172,0 -2.125,-0.953 -2.125,-2.124l0,-41.201l4.25,0l0,41.201z" fill=" rgb(253, 187, 65)" id="svg_2"/>
   <path d="m144.21578,136.30588c0,0 -1.118,0.503 -2.388,0.869c-1.091,0.314 -2.614,0.3 -2.614,0.3l-4.257,0.014c0,0 -1.411,-0.023 -2.726,-0.349c-1.452,-0.361 -2.328,-1.015 -2.328,-1.015l0.063,56.312c0,3.928 3.196,7.124 7.125,7.124c3.929,0 7.125,-3.196 7.125,-7.124l0,-56.131zm-5,9.93l-4.25,0l0,-8.752l4.25,-0.009l0,8.761zm0,46.201c0,1.171 -0.953,2.124 -2.125,2.124c-1.172,0 -2.125,-0.953 -2.125,-2.124l0,-41.201l4.25,0l0,41.201z" id="svg_3" fill="#ffffff"/>
  </g>
 </g>
</svg>