<svg width="181" height="251" xmlns="http://www.w3.org/2000/svg">

 <g>
  <title>background</title>
  <rect fill="none" id="canvas_background" height="253" width="183" y="-1" x="-1"/>
 </g>
 <g>
  <title>Layer 1</title>
  <g id="svg_9">
   <path fill="#ffffff" id="svg_1" d="m108.5355,115.492c-0.221,0.174 -0.482,0.302 -0.774,0.333l-0.496,0.053c-1.55,0.166 -2.865,1.229 -3.354,2.709l-2.603,7.893c-0.758,2.3 -2.318,4.251 -4.394,5.495l-6.011,3.604c-1.703,1.021 -3.652,1.562 -5.638,1.562l-1.496,0c-1.985,0 -3.935,-0.54 -5.638,-1.562l-6.011,-3.604c-2.075,-1.244 -3.636,-3.195 -4.394,-5.494l-2.602,-7.893c-0.488,-1.479 -1.805,-2.543 -3.357,-2.71l-0.49,-0.052c-0.684,-0.073 -1.24,-0.598 -1.354,-1.277l-1.054,-6.322c-0.145,-0.866 0.157,-1.734 0.807,-2.324l1.65,-1.499c0.04,-0.036 0.068,-0.08 0.105,-0.117c0.096,-0.095 0.185,-0.194 0.27,-0.299c0.058,-0.073 0.114,-0.146 0.166,-0.223c0.07,-0.104 0.132,-0.212 0.19,-0.323c0.044,-0.083 0.089,-0.165 0.125,-0.251c0.049,-0.115 0.087,-0.234 0.124,-0.354c0.027,-0.088 0.057,-0.175 0.077,-0.264c0.027,-0.12 0.039,-0.243 0.053,-0.367c0.011,-0.096 0.027,-0.19 0.029,-0.286c0.001,-0.023 0.007,-0.044 0.007,-0.067l0.109,-9.856c0.018,-1.584 0.731,-3.071 1.958,-4.078c1.2,-0.986 2.688,-1.377 4.193,-1.092c10.308,1.927 23.578,0.757 32.7,-1.7l0,-7.287c-7.562,2.395 -20.836,4.082 -31.413,2.103c-3.519,-0.658 -7.137,0.276 -9.922,2.563c-0.835,0.686 -1.566,1.467 -2.185,2.323l-1.313,-4.774c-0.357,-1.293 -0.184,-2.645 0.49,-3.805s1.761,-1.982 3.061,-2.313l3.436,-0.875c1.551,-0.395 2.636,-1.792 2.636,-3.392l0,-0.163c0,-6.527 5.311,-11.837 11.838,-11.837c3.143,0 6.201,0.649 9.092,1.929c6.239,2.764 17.362,6.204 27.539,1.73c0.018,0.768 -0.014,1.509 -0.087,2.229l7.02,0c0.192,-2.698 -0.052,-5.583 -0.736,-8.65c-0.258,-1.16 -1.088,-2.11 -2.202,-2.522c-1.113,-0.413 -2.362,-0.232 -3.313,0.483c-8.444,6.331 -19.529,2.924 -25.388,0.329c-3.789,-1.678 -7.802,-2.529 -11.927,-2.529c-9.504,0 -17.387,7.075 -18.658,16.234l-0.979,0.25c-3.137,0.799 -5.76,2.782 -7.386,5.582s-2.046,6.062 -1.184,9.183l5.178,18.751l-0.057,0.052c-2.418,2.197 -3.542,5.434 -3.004,8.656l1.053,6.321c0.542,3.259 2.928,5.879 6.021,6.791l2.038,6.184c0.797,2.414 2.117,4.6 3.842,6.416c-9.875,0.001 -18.048,7.43 -19.226,16.991l-2.774,0.843c-8.068,2.45 -13.489,9.762 -13.489,18.193l0,25.715c0,1.933 1.567,3.5 3.5,3.5l103.172,0c1.933,0 3.5,-1.567 3.5,-3.5l0,-25.715c0,-8.432 -5.421,-15.743 -13.488,-18.193l-2.775,-0.843c-1.178,-9.562 -9.351,-16.99 -19.226,-16.991c1.725,-1.816 3.045,-4.002 3.842,-6.417l2.039,-6.183c2.933,-0.864 5.21,-3.274 5.902,-6.301l-3.567,0c-1.337,0 -2.613,-0.254 -3.797,-0.696zm-34.713,32.766l0,-7.102l0.711,0.426c2.79,1.673 5.984,2.558 9.237,2.558l1.496,0c3.253,0 6.447,-0.885 9.237,-2.558l0.711,-0.426l0,7.102c0,0.65 0.189,1.251 0.498,1.773c-1.454,4.807 -5.92,8.318 -11.194,8.318s-9.741,-3.511 -11.194,-8.318c0.309,-0.521 0.498,-1.123 0.498,-1.773zm-5.264,3.293c2.098,6.823 8.458,11.799 15.96,11.799c7.502,0 13.862,-4.975 15.96,-11.799l1.153,0.415c0.728,0.262 1.313,0.823 1.607,1.54c0.284,0.694 0.266,1.44 -0.052,2.101c-3.438,7.154 -10.504,11.599 -18.439,11.599c-0.079,0 -0.153,0.016 -0.229,0.023c-0.077,-0.007 -0.151,-0.023 -0.229,-0.023c-7.936,0 -15.001,-4.444 -18.439,-11.599c-0.317,-0.66 -0.336,-1.406 -0.052,-2.1c0.294,-0.718 0.88,-1.279 1.608,-1.541l1.152,-0.415zm34.764,31.717c0,1.002 -0.815,1.817 -1.818,1.817c-1.002,0 -1.817,-0.815 -1.817,-1.817c0,-1.003 0.815,-1.818 1.817,-1.818c1.003,0 1.818,0.815 1.818,1.818zm-33.971,0c0,1.002 -0.815,1.817 -1.817,1.817c-1.003,0 -1.818,-0.815 -1.818,-1.817c0,-1.003 0.815,-1.818 1.818,-1.818c1.001,0 1.817,0.815 1.817,1.818zm47.135,-28.807l0,0.257c0,1.541 1.008,2.901 2.482,3.349l5.112,1.553c5.099,1.549 8.523,6.168 8.523,11.496l0,22.215l-96.17,0l0,-22.215c0,-5.328 3.425,-9.947 8.523,-11.496l5.112,-1.553c1.475,-0.447 2.483,-1.808 2.483,-3.349l0,-0.257c0,-6.822 5.551,-12.373 12.374,-12.373l1.897,0l0,4.773l-1.109,0.399c-2.058,0.74 -3.713,2.326 -4.542,4.351c-0.815,1.99 -0.752,4.236 0.173,6.161c0.996,2.073 2.247,3.955 3.689,5.635l0,13.523c-2.525,1 -4.318,3.461 -4.318,6.337c0,3.759 3.059,6.817 6.818,6.817c3.759,0 6.817,-3.059 6.817,-6.817c0,-2.876 -1.793,-5.337 -4.317,-6.337l0,-9.069c4.112,2.78 9.028,4.343 14.256,4.343c0.079,0 0.153,-0.016 0.229,-0.023c0.077,0.007 0.151,0.023 0.229,0.023c5.228,0 10.144,-1.563 14.256,-4.343l0,9.069c-2.524,1 -4.317,3.461 -4.317,6.337c0,3.759 3.059,6.817 6.817,6.817c3.76,0 6.818,-3.059 6.818,-6.817c0,-2.877 -1.793,-5.337 -4.318,-6.337l0,-13.523c1.443,-1.68 2.693,-3.562 3.689,-5.635c0.925,-1.925 0.988,-4.17 0.173,-6.161c-0.829,-2.024 -2.484,-3.61 -4.541,-4.351l-1.11,-0.4l0,-4.772l1.898,0c6.824,0 12.374,5.551 12.374,12.373z"/>
   <path fill="#ffffff" id="svg_2" d="m143.1715,66.059l-30.84,0c-4.629,0 -8.395,3.766 -8.395,8.395l0,30.839c0,4.629 3.766,8.395 8.395,8.395l6.6,0l0,11.024c0,1.02 0.619,1.938 1.565,2.318c0.303,0.122 0.62,0.182 0.934,0.182c0.667,0 1.321,-0.267 1.803,-0.767l12.276,-12.757l7.662,0c4.629,0 8.395,-3.766 8.395,-8.395l0,-30.839c-0.001,-4.629 -3.766,-8.395 -8.395,-8.395zm3.394,39.234c0,1.872 -1.522,3.395 -3.395,3.395l-8.726,0c-0.68,0 -1.33,0.277 -1.802,0.767l-8.713,9.054l0,-7.321c0,-1.381 -1.119,-2.5 -2.5,-2.5l-9.1,0c-1.872,0 -3.395,-1.523 -3.395,-3.395l0,-30.839c0,-1.872 1.522,-3.395 3.395,-3.395l30.84,0c1.872,0 3.395,1.523 3.395,3.395l0,30.839l0.001,0z"/>
   <path fill="#fdbb41" id="svg_3" d="m120.9255,85.956c1.062,-0.882 1.208,-2.458 0.325,-3.521c-0.883,-1.064 -2.461,-1.208 -3.521,-0.325l-6.47,5.375c-0.571,0.475 -0.902,1.18 -0.902,1.923s0.331,1.448 0.902,1.923l6.47,5.375c0.467,0.388 1.033,0.577 1.597,0.577c0.717,0 1.43,-0.307 1.924,-0.902c0.883,-1.062 0.736,-2.638 -0.325,-3.521l-4.155,-3.452l4.155,-3.452z"/>
   <path fill="#fdbb41" id="svg_4" d="m137.0505,82.11c-1.061,-0.881 -2.638,-0.738 -3.521,0.325c-0.883,1.062 -0.736,2.638 0.325,3.521l4.155,3.452l-4.155,3.452c-1.062,0.882 -1.208,2.458 -0.325,3.521c0.494,0.595 1.207,0.902 1.924,0.902c0.563,0 1.13,-0.189 1.597,-0.577l6.47,-5.375c0.571,-0.475 0.902,-1.18 0.902,-1.923s-0.331,-1.448 -0.902,-1.923l-6.47,-5.375z"/>
   <path fill="#fdbb41" id="svg_5" d="m130.5315,80.017c-1.308,-0.439 -2.726,0.269 -3.164,1.577l-4.698,14.042c-0.438,1.31 0.269,2.726 1.578,3.164c0.263,0.088 0.53,0.13 0.793,0.13c1.046,0 2.021,-0.661 2.371,-1.707l4.698,-14.042c0.438,-1.31 -0.268,-2.726 -1.578,-3.164z"/>
  </g>
 </g>
</svg>