<svg width="181" height="251.00000000000003" xmlns="http://www.w3.org/2000/svg">

 <g>
  <title>background</title>
  <rect fill="none" id="canvas_background" height="253" width="183" y="-1" x="-1"/>
 </g>
 <g>
  <title>Layer 1</title>
  <g id="svg_6">
   <path fill="#ffffff" id="svg_1" d="m123.3795,192.067l-4.883,0l0,-17.023c0,-0.056 -0.013,-0.109 -0.017,-0.165l0,-17.685l3.828,1.163c0.341,0.103 0.673,0.225 1,0.356l0,-0.478c-3.812,-2.257 -6.747,-5.578 -8.532,-9.481l-14.335,-4.354l0,-8.87c2.662,-2.073 4.676,-4.889 5.742,-8.122l2.038,-6.184c3.092,-0.911 5.478,-3.531 6.021,-6.789l1.054,-6.323c0.537,-3.223 -0.586,-6.458 -3.004,-8.656l-0.11,-0.1c0.41,-1.993 0.617,-4.02 0.617,-6.051c0,-3.044 -0.451,-6.021 -1.339,-8.886l0.909,-1.704l-0.052,-0.028c0.33,-0.632 0.471,-1.352 0.377,-2.072l-1.334,-10.24c-0.877,-6.739 -5.265,-12.379 -11.45,-14.722c-4.902,-1.855 -12.325,-4.023 -17.108,-4.023l-0.115,0c-4.783,0 -12.205,2.168 -17.107,4.024c-6.186,2.342 -10.573,7.983 -11.451,14.721l-1.333,10.241c-0.094,0.72 0.047,1.44 0.377,2.072l-0.052,0.028l0.914,1.713c-0.886,2.864 -1.341,5.84 -1.341,8.876c0,2.03 0.207,4.057 0.617,6.05l-0.111,0.102c-2.419,2.197 -3.542,5.433 -3.005,8.656l1.053,6.322c0.543,3.259 2.929,5.88 6.021,6.79l2.039,6.184c1.066,3.233 3.08,6.049 5.742,8.122l0,8.87l-23.9,7.259c-8.069,2.449 -13.49,9.761 -13.49,18.193l0,25.715c0,1.933 1.567,3.5 3.5,3.5l95.854,0c-1.982,-1.766 -3.327,-4.226 -3.634,-7.001zm-14.477,-37.781l4.577,1.39l0,16.868l-4.577,0l0,-18.258zm-47.833,-83.006c0.543,-4.174 3.221,-7.653 6.988,-9.079c5.464,-2.069 11.617,-3.571 14.629,-3.571l0.115,0c3.013,0 9.166,1.501 14.629,3.571c3.767,1.426 6.444,4.905 6.987,9.079l0.819,6.289l-44.986,0l0.819,-6.289zm42.377,13.288l-3.21,6.015c-4.753,-1.123 -11.071,-1.799 -17.321,-1.819c-0.019,0 -0.038,0 -0.057,0l-0.229,0c-0.019,0 -0.038,0 -0.057,0c-6.25,0.02 -12.568,0.696 -17.321,1.819l-3.209,-6.015l41.404,0zm-40.094,32.758c-0.487,-1.481 -1.803,-2.545 -3.354,-2.712l-0.494,-0.053c-0.684,-0.073 -1.24,-0.598 -1.354,-1.276l-1.054,-6.323c-0.144,-0.865 0.157,-1.734 0.808,-2.324l1.65,-1.5c0.983,-0.894 1.375,-2.266 1.014,-3.543c-0.408,-1.441 -0.666,-2.914 -0.789,-4.396l0.614,1.151c0.8,1.5 2.562,2.208 4.176,1.679c3.179,-1.041 9.839,-2.254 18.174,-2.266c8.335,0.011 14.994,1.225 18.173,2.265c0.36,0.118 0.727,0.174 1.089,0.174c1.264,0 2.466,-0.688 3.088,-1.853l0.618,-1.158c-0.123,1.485 -0.381,2.961 -0.79,4.405c-0.362,1.278 0.03,2.651 1.014,3.544l1.648,1.497c0.648,0.59 0.95,1.459 0.807,2.325l-1.054,6.322c-0.113,0.679 -0.67,1.204 -1.355,1.277l-0.492,0.053c-1.551,0.167 -2.867,1.231 -3.354,2.709l-2.602,7.893c-0.758,2.298 -2.318,4.25 -4.394,5.495l-6.011,3.604c-1.702,1.021 -3.651,1.561 -5.638,1.561l-1.496,0c-1.986,0 -3.935,-0.539 -5.637,-1.561l-6.011,-3.604c-2.075,-1.244 -3.635,-3.195 -4.394,-5.495l-2.6,-7.89zm8.621,30.349c0.044,-0.222 0.074,-0.448 0.074,-0.68l0,-7.103l0.711,0.426c2.789,1.674 5.983,2.558 9.237,2.558l1.496,0c3.254,0 6.449,-0.884 9.238,-2.557l0.711,-0.426l0,7.102c0,0.187 0.016,0.37 0.045,0.55l-10.886,5.444l-10.626,-5.314zm5.28,8.232l-9.317,4.936l-1.787,-9.462l1.279,-0.388l9.825,4.914zm20.627,-4.969l1.185,0.36l-1.803,9.545l-9.317,-4.936l9.935,-4.969zm-36.294,3.223l2.067,10.943c0.147,0.78 0.657,1.444 1.373,1.789c0.343,0.165 0.714,0.247 1.084,0.247c0.402,0 0.805,-0.098 1.17,-0.291l15.319,-8.116l15.32,8.116c0.365,0.193 0.768,0.291 1.17,0.291c0.37,0 0.741,-0.082 1.084,-0.247c0.716,-0.345 1.226,-1.009 1.373,-1.789l2.332,-12.343l0.024,0.007l0,19.777l-42.316,0l0,-18.384zm-9.578,1.514l4.578,-1.39l0,18.259l-4.578,0l0,-16.869zm-5,19.369l0,17.023l-12.351,0l0,-22.215c0,-5.328 3.425,-9.948 8.523,-11.496l3.827,-1.162l0,17.85l0.001,0zm50.887,17.023l-30.286,0l0,-4.001l30.286,0l0,4.001zm15.601,0l-10.601,0l0,-6.501c0,-1.381 -1.119,-2.5 -2.5,-2.5l-35.286,0c-1.381,0 -2.5,1.119 -2.5,2.5l0,6.501l-10.601,0l0,-14.523l7.078,0l47.316,0l7.094,0l0,14.523z"/>
   <path fill="#fdbb41" id="svg_3" d="m134.3305,199.37c-4.699,0 -8.522,-3.823 -8.522,-8.522l0,-34.096c-6.424,-3.203 -10.486,-9.696 -10.486,-16.986c0,-7.31 4.272,-14.053 10.886,-17.18c0.772,-0.365 1.682,-0.311 2.406,0.148c0.724,0.458 1.162,1.255 1.162,2.112l0,11.933l4.559,2.397l4.56,-2.397l0,-11.934c0,-0.857 0.438,-1.654 1.163,-2.112c0.724,-0.459 1.633,-0.515 2.407,-0.147c6.606,3.129 10.875,9.873 10.875,17.179c0,7.302 -4.063,13.796 -10.487,16.989l0,34.093c-0.002,4.7 -3.824,8.523 -8.523,8.523zm-9.555,-69.835c-2.786,2.612 -4.454,6.311 -4.454,10.23c0,5.802 3.493,10.919 8.898,13.036c0.958,0.376 1.588,1.3 1.588,2.328l0,35.718c0,1.942 1.58,3.522 3.522,3.522c1.941,0 3.521,-1.58 3.521,-3.522l0,-35.717c0,-1.03 0.632,-1.955 1.592,-2.329c5.404,-2.106 8.896,-7.224 8.896,-13.035c0,-3.916 -1.664,-7.613 -4.445,-10.226l0,8.748c0,0.929 -0.515,1.78 -1.337,2.213l-7.06,3.712c-0.729,0.383 -1.599,0.383 -2.327,0l-7.059,-3.712c-0.821,-0.433 -1.336,-1.284 -1.336,-2.213l0,-8.753l0.001,0z"/>
  </g>
 </g>
</svg>